<?xml version="1.0" encoding="utf-8"?>
<!-- Generator: Adobe Illustrator 17.0.0, SVG Export Plug-In . SVG Version: 6.00 Build 0)  -->
<!DOCTYPE svg PUBLIC "-//W3C//DTD SVG 1.1//EN" "http://www.w3.org/Graphics/SVG/1.1/DTD/svg11.dtd">
<svg version="1.1" id="Layer_1" xmlns="http://www.w3.org/2000/svg" xmlns:xlink="http://www.w3.org/1999/xlink" x="0px" y="0px"
	 width="1440px" height="1440px" viewBox="0 0 1440 1440" enable-background="new 0 0 1440 1440" xml:space="preserve">
<g>
	<path fill="#020202" d="M559.561,1336.001c-10.589,0.557-21.174,0.722-31.919,0.522c-11.091-0.206-22.183-0.724-33.228-1.771
		c-8.873-0.841-17.838-1.667-26.294-4.643c-9.926-3.494-18.826-9.25-27.353-15.311c-14.046-9.984-27.348-21.853-34.309-38.052
		c-1.654-3.849-3.036-7.814-4.465-11.75c-5.38-14.824-7.163-30.375-8.817-45.922c-3.184-29.939-6.597-59.859-9.291-89.843
		c-2.105-23.43-5.004-46.802-5.848-70.34c-0.057-1.6-0.303-3.203-0.577-4.785c-0.855-4.939-3.019-7.071-8.08-6.58
		c-7.254,0.704-14.433,2.138-21.662,3.138c-24.319,3.364-48.683,4.274-72.858-0.718c-32.935-6.801-54.372-27.501-66.985-57.828
		c-9.982-23.998-14.936-49.303-18.727-74.963c-5.082-34.404-6.245-69.068-6.581-103.664c-0.471-48.378-0.609-96.794,0.945-145.168
		c0.997-31.024,4.873-61.7,12.92-91.801c12.226-45.733,41.601-73.273,87.698-82.818c24.801-5.135,49.903-8.042,75.341-6.774
		c8.19,0.408,11.829-2.671,13.489-11.124c5.764-29.36,11.733-58.677,20.167-87.415c17.175-58.523,41.183-113.746,78.235-162.757
		c48.79-64.538,113.39-103.04,192.613-117.654c6.174-1.139,12.4-2.53,18.635-2.719c31.769-0.961,63.554-4.145,95.294,0.959
		c25.834,4.154,51.537,8.677,76.272,17.595c50.584,18.239,93.601,47.081,125.869,90.587c18.029,24.308,29.335,52.074,39.103,80.507
		c9.596,27.933,16.853,56.488,22.739,85.397c0.99,4.862,3.115,7.564,7.754,9.753c37.298,17.607,67.559,42.813,84.928,81.241
		c9.917,21.942,14.98,44.924,11.923,69.099c-2.499,19.756-11.518,36.965-22.479,53.192c-12.406,18.366-26.21,35.566-43.704,49.453
		c-4.46,3.54-4.817,8.051-3.604,13.05c3.819,15.74,7.531,31.486,10.221,47.485c5.846,34.759,7.426,69.697,6.62,104.909
		c-1.242,54.271-0.956,108.569-0.432,162.848c0.207,21.376-2.521,42.424-4.179,63.594c-2.099,26.806-4.948,53.554-7.425,80.331
		c-3.475,37.571-7.828,75.009-19.327,111.159c-15.263,47.986-48.198,75.578-97.723,83.496c-36.073,5.768-71.947,4.832-107.456-4.178
		c-24.161-6.131-44.086-18.32-56.859-40.502c-7.58-13.163-10.716-27.632-12.757-42.472c-5.102-37.103-7.156-74.467-9.699-111.789
		c-1.58-23.18-2.964-46.373-4.537-69.554c-0.794-11.694-6.377-16.966-18.146-17.582c-12.427-0.651-24.802-0.644-37.122,1.608
		c-13.006,2.377-20.604,10.123-23.62,22.763c-3.214,13.473-2.286,27.042-0.583,40.543c2.528,20.038,3.603,40.16,4.264,60.318
		c0.791,24.133,0.114,48.21-2.794,72.207c-3.077,25.385-9.297,49.706-24.864,70.606c-10.709,14.378-24.831,25.428-41.223,32.631
		c-14.544,6.392-29.685,7.81-45.282,9.521C575.659,1334.927,567.609,1335.578,559.561,1336.001z"/>
	<path fill="#90929A" d="M471.132,270.36c6.151-12.212,14.555-22.843,23.101-33.419c25.191-31.175,54.334-57.658,90.327-75.882
		c32.62-16.516,67.213-26.656,103.503-31.195c61.493-7.692,120.987-0.026,178.244,23.579
		c56.582,23.327,94.878,64.731,117.662,121.079c11.787,29.151,20.83,59.201,29.51,89.374c0.321,1.116,0.483,2.288,0.618,3.445
		c0.511,4.368-1.137,6.167-5.477,5.273c-8.576-1.767-17.062-3.961-25.623-5.804c-24.608-5.296-49.543-8.268-74.603-10.343
		c-26.882-2.226-53.734-1.601-80.538,1.06c-29.528,2.931-58.321,8.743-85.049,22.439c-32.48,16.643-51.547,43.377-59.901,78.468
		c-5.692,23.911-8.222,48.104-6.995,72.625c1.442,28.826,7.33,56.792,18.353,83.483c11.312,27.39,32.562,44.772,59.121,56.274
		c24.331,10.537,50.046,15.831,76.174,19.36c21.508,2.905,43.145,3.464,64.79,2.57c36.208-1.496,71.654-8.033,106.669-17.073
		c13.853-3.577,27.625-7.467,41.453-11.145c6.909-1.838,9.032-0.893,12.603,5.222c5.635,9.65,8.305,20.088,8.997,31.225
		c0.652,10.492,1.898,20.95,2.972,31.413c0.299,2.917,0.604,5.814,0.335,8.744c-0.205,5.962-2.546,11.394-4.638,16.786
		c-5.503,14.184-8.946,29.088-15.213,42.992c-6.905,15.319-13.114,30.943-22.58,45.031c-14.349,21.358-32.987,37.746-55.451,50.068
		c-24.589,13.488-51.163,21.525-78.045,28.7c-30.148,8.046-60.74,13.923-91.729,17.536c-16.972,1.979-34.012,3.21-51.105,4.05
		c-15.508,0.762-31.006,0.986-46.474,0.558c-38.066-1.054-75.479-6.069-111.019-20.852c-39.887-16.592-69.83-44.186-90.781-81.791
		c-17.057-30.615-26.871-63.793-34.429-97.734c-5.889-26.445-9.024-53.304-11.845-80.23c-3.435-32.795-3.974-65.668-3.178-98.548
		c0.406-16.769,1.063-33.566,2.221-50.332c0.804-11.648,1.213-23.333,1.898-35c0.841-14.312,2.605-28.519,4.063-42.764
		c0.967-9.444,2.089-18.851,2.32-28.387c0.251-10.347,1.36-20.686,2.136-31.026c0.842-11.212,1.39-22.445,2.095-33.668
		c0.897-14.282,1.568-28.578,2.352-42.866c0.464-8.452,1.27-16.905,1.187-25.389C469.137,275.472,469.198,272.676,471.132,270.36z"
		/>
	<path fill="#65666B" d="M474.102,265.034c-0.84,15.856-4.611,37.04-5.5,52.894c-1.142,20.369-2.168,40.747-3.601,61.096
		c-0.982,13.953-2.103,27.882-2.685,41.871c-0.477,11.461-2.333,22.863-3.559,34.293c-0.806,7.52-1.91,15.027-2.302,22.57
		c-1.022,19.658-1.918,39.33-2.963,58.982c-1.507,28.332-2.02,56.664-1.278,84.986c0.449,17.142,2.171,34.267,3.887,51.371
		c2.167,21.596,5.068,43.063,9.149,64.357c3.1,16.171,7.272,32.104,12.095,47.866c5.35,17.484,11.7,34.573,20.019,50.863
		c10.787,21.123,24.536,40.124,42.184,56.058c22.083,19.938,47.967,33.029,76.445,41.142c20.082,5.721,40.559,9.052,61.4,10.773
		c21.16,1.747,42.326,1.937,63.479,1.346c19.2-0.537,38.405-1.912,57.488-4.27c33.561-4.148,66.709-10.484,99.332-19.484
		c21.13-5.829,42.049-12.302,61.81-21.889c20.686-10.036,39.18-23.075,54.062-40.923c12.388-14.857,20.9-31.775,28.784-49.328
		c10.005-22.274,16.108-45.87,25.03-68.477c0.138,1.587,0.724,1.654,1.515,4.389c2.376,11.016,2.209,14.349,3.701,27.849
		c0.115,33.947,3.187,57.26,2.498,91.194c-0.471,23.189-2.767,46.335-3.958,69.516c-0.87,16.921-2.277,33.795-3.791,50.661
		c-1.37,15.257-3.181,30.474-4.65,45.723c-0.881,9.15-1.592,18.32-2.181,27.494c-1.151,17.921-3.605,35.715-5.126,53.596
		c-1.287,15.125-2.612,30.241-4.622,45.289c-3.374,25.261-8.387,50.128-18.974,73.505c-13.548,29.917-37.524,46.511-68.974,53.402
		c-13.181,2.888-26.569,4.242-39.996,4.106c-23.043-0.233-45.652-3.821-67.555-11.134c-24.011-8.017-39.732-29.186-41.654-54.432
		c-1.506-19.783-3.933-39.494-5.784-59.252c-1.103-11.771-1.977-23.566-2.791-35.362c-1.679-24.333-3.241-48.665-3.93-73.062
		c-0.229-8.095-0.206-15.998,1.243-23.914c1.24-6.775,4.448-9.916,11.169-10.224c22.164-1.016,44.278-3.303,66.507-2.695
		c2.333,0.064,4.655-0.043,6.984,0.469c3.794,0.834,7.514,0.386,9.885-2.981c2.796-3.972,3.012-8.595,1.151-12.973
		c-1.77-4.161-5.949-4.603-9.738-4.488c-43.006,1.302-86.018,0.448-129.026,0.362c-9.312-0.018-18.608-1.713-27.978-1.515
		c-12.71,0.268-24.938,2.96-36.622,7.838c-15.585,6.506-22.617,19.5-25.817,35.185c-3.696,18.119-3.231,36.237-0.394,54.442
		c1.188,7.621,1.929,15.341,2.093,23.101c0.507,24.105,2.483,48.181,1.67,72.311c-0.766,22.737-3.904,45.065-12.274,66.416
		c-10.636,27.13-30.564,43.883-58.085,52.273c-17.997,5.487-36.457,8.52-55.183,8.571c-30.097,0.083-59.424-5.257-86.962-17.548
		c-24.853-11.093-38.087-31.877-43.722-57.896c-3.317-15.314-3.835-30.972-5.272-46.51c-1.787-19.327-3.233-38.686-5.109-58.003
		c-1.961-20.185-4.262-40.336-6.406-60.503c-3.438-32.344-5.407-64.873-11.455-96.893c-2.536-13.426-3.194-26.898-3.658-40.5
		c-0.533-15.643-0.113-31.288-0.74-46.917c-1.1-27.434-2.151-54.871-3.575-82.289c-0.803-15.469-1.307-30.936-1.721-46.417
		c-0.582-21.787-1.017-43.586-0.417-65.358c0.737-26.764-0.098-53.538,0.849-80.282c1.017-28.737,3.033-57.414,6.606-85.978
		c4.856-38.821,10.592-77.473,20.172-115.458c11.963-47.433,29.576-92.623,53.815-135.176
		C461.916,276.103,469.435,267.367,474.102,265.034z"/>
	<path fill="#65666B" d="M359.787,581.358c-0.549,17.402,1.486,34.772,0.725,52.173c-1.38,31.551-2.165,63.119-1.451,94.689
		c0.515,22.784,1.351,45.561,1.733,68.352c0.306,18.253,0.915,36.506,1.742,54.743c1.178,25.955,2.692,51.895,4.035,77.843
		c0.664,12.832,1.1,25.678,1.943,38.498c0.873,13.287,0.879,26.584,1.048,39.882c0.101,7.956-3.637,13.238-10.957,16.657
		c-7.99,3.732-16.517,4.733-25.077,5.547c-17.943,1.706-35.798,1.725-53.64-1.8c-22.13-4.372-37.145-17.404-47.191-36.949
		c-10.118-19.686-15.955-40.758-19.444-62.479c-4.17-25.964-5.933-52.164-7.313-78.416c-1.881-35.799-1.873-71.615-1.231-107.416
		c0.453-25.295,0.376-50.583,0.608-75.874c0.028-3.069-0.078-6.147,0.869-9.127c0.61-1.651,0.692-3.392,0.878-5.119
		c5.938-18.104,14.819-34.674,26.783-49.448c12.234-15.107,27.107-26.557,46.608-30.825c8.243-1.804,16.638-1.188,24.898-0.744
		c15.601,0.838,31.162,2.475,46.285,6.784C354.425,579.123,357.393,579.488,359.787,581.358z"/>
	<path fill="#A6D0E1" d="M784.346,391.195c26.547-7.096,54.03-10.184,81.466-10.202c38.776-0.025,77.398,1.788,115.474,9.799
		c37.615,7.914,71.96,22.795,100.905,48.673c20.792,18.589,34.388,41.356,39.159,69.087c3.457,20.091,0.689,39.238-8.612,57.401
		c-2.783,5.434-5.671,10.814-8.51,16.219c-0.419,0.13-0.898,0.328-1.274,0.099c-6.122-3.732-11.567-1.384-17.347,1.346
		c-37.633,17.77-76.713,30.994-118.158,36.364c-9.984,1.293-20.041,1.873-30.138,2.22c-35.062,1.203-69.394-3.542-103.164-12.417
		c-18.444-4.847-36.161-11.711-51.394-23.798C768,574.28,760.073,558.875,757.17,540.511c-3.719-23.527-0.24-46.552,4.186-69.6
		c4.156-21.639,11.922-42.184,18.32-63.146c1.285-4.209,1.91-8.558,2.809-12.85C782.806,393.382,782.337,391.738,784.346,391.195z"
		/>
	<path fill="#66818C" d="M784.862,391.136c0,0-4.33,20.146-7.954,29.876c-8.744,23.475-14.633,47.702-18.177,72.455
		c-2.831,19.768-3.23,39.611,2.5,59.023c5.774,19.56,19.171,32.737,36.771,42.034c19.837,10.478,41.23,16.184,63.156,20.157
		c21.27,3.854,42.721,6.318,64.319,6.736c11.06,0.214,22.194-0.552,33.214-1.668c27.248-2.76,53.744-9.056,79.611-18.045
		c17.13-5.953,33.436-13.801,50.146-20.831c11.256-4.735,15.36-6.36,20.319-7.256c-0.485,4.914-8.26,16.893-10.873,20.726
		c-4.96,7.274-10.71,13.608-17.71,21.176c-12.035,13.013-25.402,23.002-42.045,28.019c-36.493,11.001-73.265,20.928-111.377,24.883
		c-32.976,3.422-65.967,3.642-98.924,0.497c-23.701-2.262-46.561-8.099-68.071-18.717c-28.994-14.312-47.143-37.238-54.552-68.578
		c-6.245-26.415-9.732-53.18-8.139-80.394c1.143-19.524,4.965-38.533,12.692-56.571c2.133-4.978,5.737-9.965,8.832-14.405
		c2.263-3.247,4.796-6.258,7.769-8.879c6.144-5.417,12.905-10.718,19.672-15.316c5.99-4.07,12.583-7.15,19.207-10.028
		c3.335-1.45,4.971-1.937,8.518-2.743C786.065,390.492,784.862,391.136,784.862,391.136z"/>
	<path fill="#90929A" d="M359.787,581.358c-6.94-1.582-13.843-3.357-20.828-4.708c-17.804-3.443-35.854-5.15-53.9-3.852
		c-12.569,0.904-23.743,6.735-33.633,14.611c-20.155,16.051-32.522,37.468-41.776,60.999c-0.638,1.623-1.196,3.278-1.792,4.918
		c-2.19-0.264-1.114-1.644-0.929-2.719c2.15-27.171,6.022-54.044,16.983-79.248c6.516-14.984,15.428-28.624,28.743-38.613
		c11.727-8.798,25.65-12.43,39.739-15.282c20.526-4.155,41.274-6.282,62.23-6.215c1.6,0.005,3.227,0.072,4.794,0.367
		c5.801,1.092,7.951,3.522,7.405,9.371c-0.527,5.653-1.818,11.23-2.58,16.867c-1.681,12.428-3.14,24.881-3.75,37.42
		C360.395,577.309,360.029,579.33,359.787,581.358z"/>
	<path fill="#FFFFFF" d="M1020.951,492.417c-15.129,1.793-28.492-3.747-41.939-9.184c-19.757-7.988-39.255-16.559-58.596-25.493
		c-2.251-1.04-4.499-2.139-6.593-3.459c-12.594-7.941-14.336-22.056-4.434-33.256c7.799-8.822,17.658-13.209,29.112-14.283
		c21.42-2.009,42.477-0.318,62.931,6.774c10.39,3.602,20.364,8.151,29.404,14.417c9.561,6.626,20.424,11.507,28.15,20.642
		c5.837,6.902,9.309,14.484,6.736,23.75c-1.682,6.056-6.021,9.794-11.27,12.747C1043.99,490.96,1032.89,493.924,1020.951,492.417z"
		/>
</g>
</svg>
