<?xml version="1.0" encoding="utf-8"?>
<!-- Generator: Adobe Illustrator 17.0.0, SVG Export Plug-In . SVG Version: 6.00 Build 0)  -->
<!DOCTYPE svg PUBLIC "-//W3C//DTD SVG 1.1//EN" "http://www.w3.org/Graphics/SVG/1.1/DTD/svg11.dtd">
<svg version="1.1" id="Layer_1" xmlns="http://www.w3.org/2000/svg" xmlns:xlink="http://www.w3.org/1999/xlink" x="0px" y="0px"
	 width="1440px" height="1440px" viewBox="0 0 1440 1440" enable-background="new 0 0 1440 1440" xml:space="preserve">
<g>
	<path d="M540.12,854.643c-3.834,4.684-12.663,1.322-13.654-7.866c-5.79-53.702-11.803-107.381-17.908-161.048
		c-1.863-16.375-3.808-32.74-5.789-49.1c-0.992-8.196-1.995-16.391-2.999-24.594c-0.583-4.774,0.458-9.705-0.606-14.426
		c-1.42-6.295-5.794-9.554-8.184-1.933c-1.852,5.905-1.955,12.234-2.809,18.313c-10.574,75.286-21.002,150.593-31.485,225.892
		c-0.476,3.421-0.299,7.251-1.855,10.115c-1.58,2.907-5.157,6.956-7.453,6.711c-3.236-0.346-8.176-3.744-8.785-6.604
		c-4.131-19.397-7.239-39.01-10.819-58.527c-9.236-50.354-18.506-100.701-27.81-151.042c-1.305-7.058-2.611-14.117-3.917-21.177
		c-0.986-5.328,0.032-11.086-1.931-16.242c-5.685-14.936-9.665,15.93-10.153,18.997c-10.996,69.114-21.934,138.238-32.832,207.368
		c-0.872,5.534-1.552,11.12-1.915,16.708c-0.282,4.349-1.664,8.934-6.127,10.447c-7.726,2.62-10.677-2.758-9.434-9.347
		c1.429-7.577,2.408-15.218,3.725-22.814c2.683-15.47,5.125-30.988,7.498-46.509c11.354-74.268,22.527-148.563,33.816-222.841
		c0.453-2.982,0.898-6.125,2.194-8.778c1.082-2.214,4.222-9.432,7.251-9.012c4.684,0.656,7.335,10.446,8.448,14.156
		c2.505,8.354,4.53,16.884,6.264,25.43c8.928,43.992,17.942,87.974,26.152,132.103c4.812,25.862,8.142,51.998,12.211,78.002
		c0.378,2.42,0.123,5.73,1.397,7.91c5.345,9.149,6.948-10.749,7.365-13.848c1.317-9.781,2.117-19.628,3.588-29.389
		c8.234-54.639,16.505-109.272,24.882-163.889c2.119-13.815,0.675-30.225,8.137-42.603c2.369-3.93,6.764-8.743,11.792-6.304
		c7.909,3.838,8.285,22.253,9.391,29.621c2.697,17.972,4.982,36.023,7.216,54.057c1.224,9.88,2.45,19.76,3.651,29.643
		c7.875,64.788,15.473,129.609,23.122,194.424C542.195,850.367,541.465,853,540.12,854.643z"/>
	<path d="M181.256,856.733c-22.026,0-40.573,0.946-58.885-0.709c-4.232-0.383-10.927-9.65-10.948-14.851
		c-0.193-47.019,0.448-94.053,1.648-141.062c1.034-40.506,9.517-79.609,26.088-116.68c23.221-51.949,43.278-58.797,98.657-35.997
		c17.933,7.383,29.987,21.227,37.23,39.413c1.557,3.909,5.129,9.244,8.484,9.826c15.517,2.693,22.71,13.56,27.517,26.396
		c11.44,30.542,17.514,62.263,17.95,94.901c0.22,16.517-4.816,30.421-20.954,38.687c-3.051,1.563-5.771,7.361-5.595,11.06
		c1.228,25.874,3.101,51.723,5.132,77.55c0.561,7.133-1.439,10.334-9.031,10.374c-20.719,0.107-41.435,0.894-62.154,1.027
		c-8.874,0.057-9.918-6.711-10.21-13.577c-0.606-14.247-0.858-28.519-1.867-42.737c-1.269-17.869-8.761-23.607-26.339-21.226
		c-10.97,1.485-17.129,6.645-16.841,18.707C181.588,816.694,181.256,835.573,181.256,856.733z M241.652,840.857
		c13.819,0,26.33-0.535,38.772,0.165c10.456,0.588,12.069-4.062,11.496-13.249c-2.612-41.831-2.771-83.907-7.425-125.491
		c-3.913-34.966-11.686-69.642-19.848-103.947c-6.585-27.678-31.667-43.405-70.438-47.599
		c-28.685-3.103-34.107,22.905-44.756,41.425c-0.851,1.479-1.354,3.168-1.948,4.785c-25.755,70.039-27.348,142.898-24.438,216.111
		c1.154,29.044,2.185,28.701,31.42,28.183c8.508-0.151,11.258-3.002,11.284-11.361c0.047-15.08,1.334-30.152,1.787-45.237
		c0.385-12.835,8.603-18.457,19.497-20.597c9.264-1.819,18.835-2.209,28.296-2.85c12.436-0.844,19.584,4.857,20.704,17.591
		C237.826,798.926,239.682,819.057,241.652,840.857z M302.507,741.141c11.391-3.909,14.313-12.13,14.107-21.618
		c-0.686-31.658-5.564-62.646-17.59-92.091c-2.257-5.528-7.484-9.843-13.45-17.384C291.547,656.287,296.934,697.994,302.507,741.141
		z"/>
	<path d="M697.543,579.817c-1.937,2.93-0.586,11.005-0.548,13.256c0.082,4.769,0.303,9.545,0.317,14.315
		c0.029,9.379-0.019,18.758,0.006,28.136c0.05,18.771,0.001,37.542,0.013,56.313c0.025,37.639,0.653,75.355,0.012,112.984
		c-0.181,10.624,0.161,21.226-0.165,31.847c-0.159,5.159,2.545,13.557-0.583,18.08c-1.786,2.582-5.972,3.37-8.812,2.362
		c-4.296-1.524-5.512-6.974-5.509-11.076c0.057-93.011-0.495-186.023-0.794-279.035c-0.018-5.613-0.915-11.78,1.076-16.683
		c1.916-4.717,6.707-10.799,10.871-11.334c3.905-0.502,11.293,4.632,12.592,8.73c10.156,32.044,20.16,64.198,28.39,96.778
		c11.266,44.599,21.42,89.478,31.777,134.294c1.254,5.426,1.382,12.01,4.499,16.792c6.437,9.876,5.576-6.416,5.598-10.177
		c0.04-6.8-0.036-13.603-0.058-20.403c-0.043-13.369-0.092-26.738-0.142-40.106c-0.101-27.18-0.205-54.361-0.273-81.541
		c-0.038-15.31-0.065-30.62-0.073-45.929c-0.005-10.355,0.188-20.709,0.62-31.055c0.272-6.5-2.51-28.969,8.003-29.917
		c4.403-0.396,7.03,6.896,7.014,10.375c-0.42,93.396-1.224,186.79-2.1,280.183c-0.061,6.458-0.401,13.133-2.132,19.278
		c-2.687,9.537-15.581,12.694-18.533,1.18c-11.125-43.385-21.343-87.001-32.038-130.498
		c-10.398-42.286-21.029-84.514-31.677-126.742c-0.604-2.395-2.203-12.197-5.927-11.432
		C698.363,578.916,697.898,579.28,697.543,579.817z"/>
	<path d="M559.829,679.857c0.688-39.744,0.36-79.614,13.582-117.903c4.295-12.439,8.705-26.304,24.659-26.245
		c16.641,0.062,30.973,6.677,39.199,22.936c13.529,26.743,19.317,55.246,20.564,84.928c2.643,62.879,1.39,125.356-19.056,185.85
		c-4.587,13.571-11.037,26.191-27.266,27.648c-14.579,1.309-26.833-9.216-33.391-27.532
		c-14.168-39.569-17.469-80.831-18.265-122.425C559.681,698.032,559.829,688.943,559.829,679.857z M574.978,696.839
		c0.81,14.085,0.9,39.714,4.159,64.933c2.744,21.237,8.434,42.214,14.483,62.818c1.535,5.228,9.358,11.854,14.369,11.919
		c5.166,0.068,11.822-6.151,15.276-11.323c3.925-5.875,5.606-13.503,7.258-20.602c12.048-51.788,14.719-104.353,11.975-157.259
		c-1.534-29.591-6.294-58.53-22.88-84.018c-2.603-4.001-6.718-8.281-11.023-9.663c-10.739-3.447-16.533,2.245-20.033,12.535
		C575.354,605.005,576.334,645.288,574.978,696.839z"/>
	<path d="M1227.299,689.888c-1.873,21.176-3.805,42.347-6.036,63.489c-1.235,11.709-2.559,23.409-4.015,35.093
		c-2.114,16.969-10.922,33.227-17.45,49.497c-10.7,26.668-49.753,25.58-63.391,1.309c-10.529-18.737-18.412-40.311-21.706-61.519
		c-11.478-73.885-17.496-148.384-17.032-223.265c0.044-7.121-3.183-17.371,8.057-18.023c2.16-0.125,7.319,12.343,7.255,18.964
		c-0.803,81.947,5.259,163.256,21.562,243.632c1.844,9.09,6.038,18.071,10.792,26.13c10.831,18.36,30.861,20.458,41.716,2.256
		c8.934-14.982,13.917-33.155,17.131-50.563c12.465-67.509,10.023-136.025,11.679-204.255c0.209-8.595-0.057-18.061,3.623-26.064
		c4.32-9.395,9.66-5.333,11.803,2.642c2.757,10.261,0.284,21.071,0.327,31.496c0.038,9.379-1.137,18.673-0.775,28.064
		C1231.096,615.449,1228.801,672.894,1227.299,689.888z"/>
	<path d="M1249.319,769.627c0.886-0.299,1.485-20.302,1.789-22.183c0.569-3.522,2.064-12.209,7.163-11.632
		c7.31,0.834,5.824,13.955,6.238,18.585c1.607,17.989,1.338,36.415,5.324,53.866c7.979,34.941,39.08,37.425,62.706,22.815
		c31.927-19.744,39.536-62.772,17.242-95.938c-14.163-21.069-34.363-34.947-56.864-45.824
		c-19.901-9.621-33.153-24.843-37.607-46.665c-7.471-36.604,0.927-69.429,25.566-97.6c10.252-11.722,37.133-14.445,55.765-5.588
		c7.584,3.605,14.793,8.924,20.536,15.011c6.786,7.192-4.098,18.519-11.544,10.979c-12.682-12.843-28.475-13.217-44.629-12.177
		c-3.097,0.199-6.948,1.967-8.92,4.303c-18.955,22.465-29.565,47.583-23.151,77.674c3.353,15.728,12.344,26.888,26.131,35.309
		c17.276,10.552,35.195,20.758,50.31,33.998c37.291,32.666,42.376,87.601,13.402,125.367
		c-19.401,25.288-46.878,34.451-75.649,21.294c-10.06-4.601-19.279-16.634-23.386-27.375
		C1253.249,806.867,1248.736,769.817,1249.319,769.627z"/>
	<path d="M814.104,668.971c0.107-1.45,0.208-2.899,0.301-4.349c0.918-14.336,2.032-28.644,3.948-42.887
		c1.078-8.008,2.379-15.988,3.989-23.907c1.493-7.348,3.49-14.605,6.366-21.539c5.645-13.61,13.438-31.234,27.286-38.3
		c10.888-5.556,24.454-3.284,35.734-0.106c3.857,1.087,7.313,6.506,8.313,10.08c1.73,6.186-8.542,7.61-12.735,6.856
		c-18.571-3.339-30.891,0.259-38.2,17.637c-7.776,18.488-14.287,38.234-16.916,58.021c-7.318,55.07-6.865,110.41,1.606,165.445
		c1.292,8.394,4.715,16.633,8.211,24.471c4.459,9.999,11.049,16.602,23.906,15.885c12.483-0.695,22.122-5.284,24.239-17.117
		c4.458-24.914,8.918-50.125,9.686-75.326c0.992-32.54,2-27.121,27.677-27.396c5.191-0.056,10.582-0.885,15.511,0.25
		c5.69,1.31,10.717,6.151,7.6,12.099c-3.803,7.256-13.472,6.832-20.366,5.925c-11.851-1.558-13.746,3.587-14.419,14.578
		c-1.445,23.595-4.26,47.239-8.601,70.473c-2.536,13.571-10.547,24.413-23.367,32.653c-14.996,9.639-44.406,1.713-49.896-13.279
		c-7.346-20.057-15.032-40.453-18.411-61.375c-3.584-22.19-3.817-45.11-3.933-67.539
		C811.559,696.433,813.091,682.711,814.104,668.971z"/>
	<path d="M194.984,677.186c-5.553-0.576-11.698-0.534-17.497-1.931c-28.694-6.917-36.521-17.196-31.095-42.51
		c8.225-38.376,7.394-40.58,46.526-42.464c46.842-2.255,51.41,2.409,57.354,45.178c4.464,32.115-0.275,37.689-32.893,39.931
		C210.08,675.893,202.79,676.556,194.984,677.186z M200.258,602.334c-3.018,0-6.037-0.059-9.054,0.009
		c-23.835,0.538-39.674,19.275-34.6,42.929c1.287,5.999,7.535,13.505,13.209,15.523c19.54,6.951,39.9,5.519,59.549-0.48
		c4.479-1.367,10.363-6.615,10.983-10.767C244.579,621.225,228.131,602.426,200.258,602.334z"/>
</g>
</svg>
